<svg xmlns="http://www.w3.org/2000/svg" fill="none" viewBox="0 0 36 36"><path fill="#fff" d="M11.39 33H32.6a.39.39 0 0 0 .4-.37V10h-5.6A1.4 1.4 0 0 1 26 8.6V3H11.4a.39.39 0 0 0-.4.37v29.27a.37.37 0 0 0 .39.36z"/><path fill="#fff" d="M32.2 9 27 3.81V8.6c0 .22.18.4.4.4h4.8z"/><path fill="#605E5C" fill-rule="evenodd" d="M33.61 9 27 2.42A1.45 1.45 0 0 0 26 2H11.4A1.39 1.39 0 0 0 10 3.37v29.27A1.37 1.37 0 0 0 11.39 34H32.6a1.39 1.39 0 0 0 1.4-1.37V9.92a1.33 1.33 0 0 0-.39-.92zM27 3.81 32.2 9h-4.8a.4.4 0 0 1-.4-.4V3.81zM32.6 33a.39.39 0 0 0 .4-.37V10h-5.6A1.4 1.4 0 0 1 26 8.6V3H11.4a.39.39 0 0 0-.4.37v29.27a.37.37 0 0 0 .39.36H32.6z" clip-rule="evenodd" opacity=".64"/><rect width="16" height="16" x="2" y="12" fill="#AF2031" rx="1.5"/><path fill="#fff" fill-rule="evenodd" d="M11.21 15H8.85L5 25h2.21L8 22.58h3.94l.83 2.42H15l-3.79-10zM10 16.56c0 .2 1.43 4.44 1.43 4.44H8.51L10 16.56z" clip-rule="evenodd"/><rect width="3" height="1" x="24" y="22" fill="#C94F60" rx=".5"/><rect width="3" height="1" x="24" y="19" fill="#E08095" rx=".5"/><path fill="#AF2031" d="M21.5 22H20v1h1.5a.5.5 0 0 0 0-1z"/><path fill="#C94F60" d="M21.5 19H20v1h1.5a.5.5 0 0 0 0-1zm8.5-3h-1v8.5a.5.5 0 0 1-.5.5H20v1h8.5a1.5 1.5 0 0 0 1.5-1.5V16z"/><path fill="#E08095" d="M20 14h8.5a1.5 1.5 0 0 1 1.5 1.5V17H20v-3z"/></svg>