<svg xmlns="http://www.w3.org/2000/svg" fill="none" viewBox="0 0 36 36"><path fill="#fff" d="M11.386 33H32.6c.216 0 .4-.17.4-.372V10h-5.6c-.772 0-1.4-.628-1.4-1.4V3H11.4c-.216 0-.4.17-.4.372v29.27c0 .197.173.358.386.358z"/><path fill="#fff" d="M32.204 9 27 3.815V8.6c0 .22.18.4.4.4h4.804z"/><path fill="#605E5C" fill-rule="evenodd" d="m33.613 8.993-6.595-6.572A1.45 1.45 0 0 0 26 2H11.4c-.772 0-1.4.615-1.4 1.372v29.27c0 .749.622 1.358 1.386 1.358H32.6c.772 0 1.4-.615 1.4-1.372V9.923c0-.346-.14-.686-.387-.93zM27 3.815 32.204 9H27.4a.4.4 0 0 1-.4-.4V3.815zM32.6 33c.216 0 .4-.17.4-.372V10h-5.6c-.772 0-1.4-.628-1.4-1.4V3H11.4c-.216 0-.4.17-.4.372v29.27c0 .198.173.358.386.358H32.6z" clip-rule="evenodd" opacity=".64"/><path fill="#103F91" d="M29.5 24H20v1h9.5a.5.5 0 0 0 0-1z"/><path fill="#185ABD" d="M29.5 21H20v1h9.5a.5.5 0 0 0 0-1z"/><path fill="#2B7CD3" d="M29.5 18H20v1h9.5a.5.5 0 0 0 0-1z"/><path fill="#41A5EE" d="M29.5 15H20v1h9.5a.5.5 0 0 0 0-1z"/><path fill="#185ABD" d="M3.5 28h13a1.5 1.5 0 0 0 1.5-1.5v-13a1.5 1.5 0 0 0-1.5-1.5h-13A1.5 1.5 0 0 0 2 13.5v13A1.5 1.5 0 0 0 3.5 28z"/><path fill="#F9F7F7" d="M7.857 22.55h.027c.01-.134 1.358-6.55 1.358-6.55H10.8s1.378 6.118 1.42 6.538h.02c.018-.29 1.134-6.538 1.134-6.538H14.8l-1.755 8h-1.666s-1.384-6.32-1.395-6.432h-.02c-.014.13-1.3 6.432-1.3 6.432H6.968L5.2 16h1.452s1.2 6.408 1.207 6.55z"/></svg>