<svg xmlns="http://www.w3.org/2000/svg" fill="none" viewBox="0 0 36 36"><path fill="#fff" d="M31 30.5c0 .827-.673 1.5-1.5 1.5H13v.607c0 .217.176.393.393.393h19.214a.393.393 0 0 0 .393-.393V5.5h.5v-.572l-3-1.678V6.5h.5v24z"/><path fill="#fff" d="M10.5 31h19a.5.5 0 0 0 .5-.5v-24H10v24a.5.5 0 0 0 .5.5z"/><path fill="#605E5C" d="M33 6v26.607a.393.393 0 0 1-.393.393H13.393a.393.393 0 0 1-.393-.393V32h16.5c.827 0 1.5-.673 1.5-1.5v-24h-1v24a.5.5 0 0 1-.5.5h-19a.5.5 0 0 1-.5-.5v-24H9v24c0 .827.673 1.5 1.5 1.5H12v.607c0 .768.625 1.393 1.393 1.393h19.214c.768 0 1.393-.625 1.393-1.393V6h-1z" opacity=".64"/><path fill="#FF8F6B" d="M31 2.01c-.017-.001-.032-.01-.048-.01H9.892C9.4 2 9 2.4 9 2.893V6l.5.5h21L31 6V5l.5-.5V3l-.5-.99z"/><path fill="#ED6C47" fill-rule="evenodd" d="M32.147 4.942 34 6.464V5.048a.892.892 0 0 0-.262-.63L31.584 2.26A.889.889 0 0 0 31 2.01v3.47a.701.701 0 0 1 1.147-.54zM9 6h22v1H9V6zm12 13 1 1h5a5 5 0 0 1-5 5 4.97 4.97 0 0 1-2-.422V20l1-1z" clip-rule="evenodd"/><path fill="#FF8F6B" d="M20 15.422V20h2v-5c-.712 0-1.387.154-2 .422z"/><path fill="#FFC7B5" d="M23 14a5 5 0 0 1 5 5h-5v-5z"/><path fill="#C43E1C" d="M3.5 28h13a1.5 1.5 0 0 0 1.5-1.5v-13a1.5 1.5 0 0 0-1.5-1.5h-13A1.5 1.5 0 0 0 2 13.5v13A1.5 1.5 0 0 0 3.5 28z"/><path fill="#fff" fill-rule="evenodd" d="M13.224 15.785c-.577-.524-1.411-.785-2.497-.785H7.102v9.784H8.88v-3.46h1.73c.696 0 1.306-.137 1.833-.413a2.95 2.95 0 0 0 1.219-1.155c.285-.497.428-1.063.428-1.7 0-.991-.288-1.748-.866-2.271zm-2.815 4.045h-1.53v-3.315h1.587c1.168 0 1.752.539 1.752 1.616 0 .556-.153.977-.457 1.266-.305.289-.755.433-1.352.433z" clip-rule="evenodd"/></svg>