<svg xmlns="http://www.w3.org/2000/svg" fill="none" viewBox="0 0 36 36"><path fill="#fff" d="M7.386 33H28.6c.216 0 .4-.17.4-.372V10h-5.6c-.772 0-1.4-.628-1.4-1.4V3H7.4c-.216 0-.4.17-.4.372v29.27c0 .197.173.358.386.358z"/><path fill="#fff" d="M28.204 9 23 3.815V8.6c0 .22.18.4.4.4h4.804z"/><path fill="#605E5C" fill-rule="evenodd" d="m29.613 8.993-6.595-6.572A1.45 1.45 0 0 0 22 2H7.4C6.628 2 6 2.615 6 3.372v29.27C6 33.39 6.622 34 7.386 34H28.6c.772 0 1.4-.615 1.4-1.372V9.923c0-.346-.14-.686-.387-.93zM23 3.815 28.204 9H23.4a.4.4 0 0 1-.4-.4V3.815zM28.6 33c.216 0 .4-.17.4-.372V10h-5.6c-.772 0-1.4-.628-1.4-1.4V3H7.4c-.216 0-.4.17-.4.372v29.27c0 .198.173.358.386.358H28.6z" clip-rule="evenodd" opacity=".64"/><path stroke="#C8C6C4" stroke-linejoin="round" d="M22.707 22.51h-9.414c-.99 0-1.793-.742-1.793-1.657V12.5h13v8.353c0 .915-.803 1.656-1.793 1.656v.001z" clip-rule="evenodd"/><path fill="#C8C6C4" d="M25.5 13a.5.5 0 0 0 0-1v1zm-15-1a.5.5 0 0 0 0 1v-1zm3.5 7.5a.5.5 0 0 0 1 0h-1zm1-4a.5.5 0 0 0-1 0h1zM25.5 12h-15v1h15v-1zM15 19.5v-4h-1v4h1z"/><path stroke="#F5BA9D" stroke-linecap="round" stroke-linejoin="round" d="M16.5 19.5v-3"/><path stroke="#C8C6C4" stroke-linecap="round" stroke-linejoin="round" d="M19.5 19.5v-2"/><path stroke="#F5BA9D" stroke-linecap="round" stroke-linejoin="round" d="M21.5 19.5v-2"/><path fill="#C8C6C4" d="M17 23h2v1h-2v-1z"/><path fill="#C8C6C4" d="M20.578 25h-5.097a.414.414 0 0 1-.413-.414v-.172c0-.229.185-.414.413-.414h5.097c.23 0 .414.185.414.414v.172a.414.414 0 0 1-.414.414z"/><path fill="#D04727" d="M11.024 29.61a.5.5 0 0 0 1 0h-1zm1-3.97a.5.5 0 1 0-1 0h1zm-2.127.764a.5.5 0 0 0 .694.72l-.694-.72zm1.627-.873.34-.366a.5.5 0 0 0-.687.006l.347.36zm.99 1.6a.5.5 0 1 0 .68-.733l-.68.733zm-.49 2.478V25.64h-1v3.97h1zm-1.433-2.485 1.28-1.233-.694-.72-1.28 1.233.694.72zm.593-1.226 1.33 1.233.68-.733-1.33-1.233-.68.733z"/></svg>