<svg xmlns="http://www.w3.org/2000/svg" fill="none" viewBox="0 0 36 36"><path fill="#fff" d="M11.386 33H32.6c.216 0 .4-.17.4-.372V10h-5.6c-.772 0-1.4-.628-1.4-1.4V3H11.4c-.216 0-.4.17-.4.372v29.27c0 .197.173.358.386.358z"/><path fill="#fff" d="M32.204 9 27 3.815V8.6c0 .22.18.4.4.4h4.804z"/><path fill="#605E5C" fill-rule="evenodd" d="m33.613 8.993-6.595-6.572A1.45 1.45 0 0 0 26 2H11.4c-.772 0-1.4.615-1.4 1.372v29.27c0 .749.622 1.358 1.386 1.358H32.6c.772 0 1.4-.615 1.4-1.372V9.923c0-.346-.14-.686-.387-.93zM27 3.815 32.204 9H27.4a.4.4 0 0 1-.4-.4V3.815zM32.6 33c.216 0 .4-.17.4-.372V10h-5.6c-.772 0-1.4-.628-1.4-1.4V3H11.4c-.216 0-.4.17-.4.372v29.27c0 .198.173.358.386.358H32.6z" clip-rule="evenodd" opacity=".64"/><path fill="#ED6C47" d="M23.965 20.035 23 19h-2l-1 1v4.463A5.971 5.971 0 0 0 24.001 26 6 6 0 0 0 30 20.035h-6.035z"/><path fill="#FFC7B5" d="M25 13v6h6a6 6 0 0 0-6-6z"/><path fill="#FF8F6B" d="M20 15.554V20h4v-6a6.013 6.013 0 0 0-4 1.554z"/><path fill="#C43E1C" d="M3.5 28h13a1.5 1.5 0 0 0 1.5-1.5v-13a1.5 1.5 0 0 0-1.5-1.5h-13A1.5 1.5 0 0 0 2 13.5v13A1.5 1.5 0 0 0 3.5 28z"/><path fill="#fff" fill-rule="evenodd" d="M13.224 15.785c-.577-.524-1.411-.785-2.497-.785H7.102v9.784H8.88v-3.46h1.73c.696 0 1.306-.137 1.833-.413a2.95 2.95 0 0 0 1.219-1.155c.285-.497.428-1.063.428-1.7 0-.991-.288-1.748-.866-2.271zm-2.815 4.045h-1.53v-3.315h1.587c1.168 0 1.752.539 1.752 1.616 0 .556-.153.977-.457 1.266-.305.289-.755.433-1.352.433z" clip-rule="evenodd"/></svg>