<svg xmlns="http://www.w3.org/2000/svg" fill="none" viewBox="0 0 36 36"><path fill="#fff" d="M11.39 33H32.6a.39.39 0 0 0 .4-.37V10h-5.6A1.4 1.4 0 0 1 26 8.6V3H11.4a.39.39 0 0 0-.4.37v29.27a.37.37 0 0 0 .39.36z"/><path fill="#fff" d="M32.2 9 27 3.81V8.6c0 .22.18.4.4.4h4.8z"/><path fill="#605E5C" fill-rule="evenodd" d="M33.61 9 27 2.42A1.45 1.45 0 0 0 26 2H11.4A1.39 1.39 0 0 0 10 3.37v29.27A1.37 1.37 0 0 0 11.39 34H32.6a1.39 1.39 0 0 0 1.4-1.37V9.92a1.33 1.33 0 0 0-.39-.92zM27 3.81 32.2 9h-4.8a.4.4 0 0 1-.4-.4V3.81zM32.6 33a.39.39 0 0 0 .4-.37V10h-5.6A1.4 1.4 0 0 1 26 8.6V3H11.4a.39.39 0 0 0-.4.37v29.27a.37.37 0 0 0 .39.36H32.6z" clip-rule="evenodd" opacity=".64"/><rect width="16" height="16" x="2" y="12" fill="#038387" rx="1.5"/><path fill="#fff" fill-rule="evenodd" d="M13.22 15.78a3.59 3.59 0 0 0-2.49-.78H7.1v9.78h1.78v-3.46h1.73a3.8 3.8 0 0 0 1.83-.41 2.89 2.89 0 0 0 1.22-1.15 3.33 3.33 0 0 0 .43-1.7 2.93 2.93 0 0 0-.87-2.28zm-2.81 4.05H8.88v-3.32h1.59c1.16 0 1.75.54 1.75 1.62a1.65 1.65 0 0 1-.46 1.27 1.87 1.87 0 0 1-1.35.43z" clip-rule="evenodd"/><path fill="#038387" d="M29.5 24H20v1h9.5a.5.5 0 0 0 0-1z"/><path fill="#1A9BA1" d="M29.5 21H20v1h9.5a.5.5 0 0 0 0-1z"/><path fill="#37C6D0" d="M20 15h9a1 1 0 0 1 1 1v2a1 1 0 0 1-1 1h-9v-4z"/></svg>