<svg class="svg-icon" style="width: 1em;height: 1em;vertical-align: middle;fill: currentColor;overflow: hidden;" viewBox="0 0 1024 1024" version="1.1" xmlns="http://www.w3.org/2000/svg"><path d="M0 512h1024v332.986182c0 62.231273-6.516364 84.805818-18.618182 107.566545a126.882909 126.882909 0 0 1-52.829091 52.782546c-22.760727 12.194909-45.335273 18.664727-107.52 18.664727H178.920727c-62.184727 0-84.759273-6.516364-107.52-18.618182A126.882909 126.882909 0 0 1 18.618182 952.506182C6.469818 929.792 0 907.217455 0 845.032727V512z" fill="#5CBC04" /><path d="M179.013818 0h665.972364c62.231273 0 84.805818 6.516364 107.566545 18.618182 22.807273 12.194909 40.634182 30.068364 52.782546 52.829091 12.194909 22.760727 18.664727 45.335273 18.664727 107.52V512H0V179.013818c0-62.231273 6.516364-84.805818 18.618182-107.566545A126.882909 126.882909 0 0 1 71.493818 18.618182C94.208 6.469818 116.782545 0 178.967273 0z" fill="#47A6FF" /><path d="M384 0h256v1024h-256z" fill="#FFCC00" /><path d="M0 332.8h1024v358.4H0z" fill="#EA340F" /><path d="M665.6 409.6v204.8H358.4V409.6h307.2z" fill="#FFCC00" /></svg>