<svg class="svg-icon" style="width: 1em;height: 1em;vertical-align: middle;fill: currentColor;overflow: hidden;" viewBox="0 0 1024 1024" version="1.1" xmlns="http://www.w3.org/2000/svg"><path d="M870.4 1024h-716.8A51.2 51.2 0 0 1 102.4 972.8v-921.6A51.2 51.2 0 0 1 153.6 0h569.685333a42.666667 42.666667 0 0 1 30.037334 12.288l155.989333 155.989333a42.666667 42.666667 0 0 1 12.288 30.037334V972.8a51.2 51.2 0 0 1-51.2 51.2zM153.6 34.133333a17.066667 17.066667 0 0 0-17.066667 17.066667v921.6a17.066667 17.066667 0 0 0 17.066667 17.066667h716.8a17.066667 17.066667 0 0 0 17.066667-17.066667V198.314667a7.168 7.168 0 0 0-2.389334-5.802667l-155.989333-155.989333a7.168 7.168 0 0 0-5.802667-2.389334z" fill="#4D4D4D" /><path d="M904.533333 204.8h-170.666666a17.066667 17.066667 0 0 1-17.066667-17.066667v-170.666666h34.133333V170.666667h153.6z" fill="#4D4D4D" /><path d="M204.8 170.666667h443.733333v34.133333H204.8zM204.8 307.2h614.4v34.133333H204.8zM204.8 443.733333h614.4v34.133334H204.8zM204.8 580.266667h614.4v34.133333H204.8zM204.8 853.333333h614.4v34.133334H204.8zM204.8 716.8h614.4v34.133333H204.8z" fill="#B3B3B3" /><path d="M51.2 460.8m17.066667 0l887.466666 0q17.066667 0 17.066667 17.066667l0 273.066666q0 17.066667-17.066667 17.066667l-887.466666 0q-17.066667 0-17.066667-17.066667l0-273.066666q0-17.066667 17.066667-17.066667Z" fill="#FFB559" /><path d="M955.733333 477.866667v273.066666H68.266667v-273.066666h887.466666m0-34.133334H68.266667a34.133333 34.133333 0 0 0-34.133334 34.133334v273.066666a34.133333 34.133333 0 0 0 34.133334 34.133334h887.466666a34.133333 34.133333 0 0 0 34.133334-34.133334v-273.066666a34.133333 34.133333 0 0 0-34.133334-34.133334z" fill="#C78C44" /><path d="M317.098667 698.709333h-26.282667v-168.618666h68.266667a50.517333 50.517333 0 0 1 55.978666 51.882666 48.810667 48.810667 0 0 1-34.133333 48.128l37.888 68.266667h-30.378667l-34.133333-64.170667H317.098667z m0-86.698666h37.546666a27.989333 27.989333 0 0 0 31.744-29.354667 28.672 28.672 0 0 0-34.133333-29.354667H317.098667zM505.173333 698.709333v-144.725333h-52.906666v-23.893333h131.754666v23.893333h-52.906666v144.725333zM628.053333 698.709333v-168.618666h105.130667v23.893333h-79.189333v51.882667h72.362666v22.869333h-72.362666v68.266667z" fill="#FFFFFF" /></svg>