<svg class="svg-icon" style="width: 1em; height: 1em;vertical-align: middle;fill: currentColor;overflow: hidden;" viewBox="0 0 1024 1024" version="1.1" xmlns="http://www.w3.org/2000/svg"><path d="M112 16h736v992H112z" fill="#EDF2F9" /><path d="M896 128h-32V32a32 32 0 0 0-32-32H128a32 32 0 0 0-32 32v960a32 32 0 0 0 32 32h704a32 32 0 0 0 32-32V416h32a32 32 0 0 0 32-32V160a32 32 0 0 0-32-32z m-64 864H128V32h704v96H448a32 32 0 0 0-32 32v224a32 32 0 0 0 32 32h384v576z" fill="#8592A5" /><path d="M336 592v240c0 35.344 64.464 64 144 64s144-28.656 144-64V592H336z" fill="#C2CDDC" /><path d="M336 592a144 64 0 1 0 288 0 144 64 0 1 0-288 0Z" fill="#FFFFFF" /><path d="M480 512c-88.352 0-160 35.808-160 80v240c0 44.192 71.648 80 160 80s160-35.808 160-80V592c0-44.192-71.648-80-160-80z m0 32c70.688 0 128 21.488 128 48s-57.312 48-128 48-128-21.488-128-48 57.312-48 128-48z m128 288c0 26.512-57.312 48-128 48s-128-21.488-128-48v-32.144C381.184 819.344 427.584 832 480 832s98.816-12.656 128-32.144V832z m-128-32c-70.688 0-128-21.488-128-48v-32.144C381.184 739.344 427.584 752 480 752s98.816-12.656 128-32.144V752c0 26.512-57.312 48-128 48z m0-80c-70.688 0-128-21.488-128-48v-32.144C381.184 659.344 427.584 672 480 672s98.816-12.656 128-32.144V672c0 26.512-57.312 48-128 48z" fill="#8592A5" /><path d="M592.352 235.12a10.416 10.416 0 0 1-2.528 2.88 5.632 5.632 0 0 1-3.392 0.96 8.224 8.224 0 0 1-3.968-1.152c-1.408-0.768-3.008-1.648-4.8-2.592a38.56 38.56 0 0 0-6.128-2.608 24.608 24.608 0 0 0-7.824-1.152c-5.072 0-8.848 1.072-11.328 3.248a11.008 11.008 0 0 0-3.712 8.752c0 2.336 0.752 4.304 2.24 5.84 1.504 1.552 3.456 2.88 5.888 4 2.416 1.12 5.2 2.144 8.32 3.072 3.12 0.944 6.32 1.968 9.568 3.12 3.248 1.136 6.432 2.48 9.568 4.032s5.888 3.536 8.32 5.92c2.432 2.4 4.384 5.328 5.888 8.768 1.488 3.44 2.24 7.584 2.24 12.432 0 5.392-0.944 10.416-2.8 15.12a35.6 35.6 0 0 1-21.232 20.528 49.088 49.088 0 0 1-17.728 3.008c-3.632 0-7.312-0.368-11.072-1.12a67.296 67.296 0 0 1-10.928-3.152 62.496 62.496 0 0 1-9.904-4.848 41.92 41.92 0 0 1-8.096-6.24l8-12.64a6.72 6.72 0 0 1 2.48-2.336 7.136 7.136 0 0 1 3.44-0.88c1.616 0 3.216 0.512 4.848 1.52 1.632 1.008 3.472 2.144 5.52 3.36 2.064 1.232 4.416 2.352 7.088 3.36 2.656 1.008 5.808 1.536 9.44 1.536 4.912 0 8.72-1.072 11.44-3.248 2.72-2.16 4.08-5.584 4.08-10.288a9.68 9.68 0 0 0-2.24-6.624 17.568 17.568 0 0 0-5.888-4.256 52.928 52.928 0 0 0-8.288-2.96c-3.088-0.864-6.272-1.792-9.52-2.848s-6.416-2.336-9.52-3.84-5.856-3.52-8.288-6-4.384-5.568-5.872-9.28c-1.504-3.696-2.256-8.288-2.256-13.712a32.864 32.864 0 0 1 10.4-23.92c3.408-3.248 7.6-5.84 12.56-7.792 4.96-1.936 10.64-2.928 17.024-2.928 3.584 0 7.056 0.288 10.432 0.848a55.328 55.328 0 0 1 18.176 6.4c2.64 1.52 4.992 3.232 7.072 5.152l-6.72 12.56zM729.152 269.68c0 4.992-0.528 9.808-1.568 14.432a60.448 60.448 0 0 1-4.48 12.992 54.864 54.864 0 0 1-16.912 20.464l29.536 32.256h-22.256c-3.2 0-6.112-0.384-8.72-1.152a14.672 14.672 0 0 1-6.96-4.688l-14.48-16.24a80.192 80.192 0 0 1-7.152 1.104 67.36 67.36 0 0 1-7.488 0.4 65.248 65.248 0 0 1-24.8-4.56 56.208 56.208 0 0 1-19.152-12.592c-5.312-5.36-9.424-11.664-12.336-18.928s-4.352-15.088-4.352-23.52 1.456-16.288 4.352-23.536a55.52 55.52 0 0 1 31.488-31.44c7.472-3.024 15.728-4.56 24.8-4.56s17.328 1.536 24.768 4.608c7.44 3.056 13.792 7.264 19.072 12.592s9.376 11.632 12.288 18.88c2.896 7.312 4.352 15.12 4.352 23.488z m-27.68 0c0-5.76-0.752-10.96-2.24-15.568a33.088 33.088 0 0 0-6.432-11.712c-2.8-3.2-6.24-5.664-10.288-7.36a35.344 35.344 0 0 0-13.84-2.56c-5.232 0-9.872 0.848-13.952 2.56a27.52 27.52 0 0 0-10.336 7.36c-2.8 3.184-4.96 7.088-6.432 11.712-1.504 4.608-2.24 9.792-2.24 15.568 0 5.808 0.736 11.008 2.24 15.632 1.488 4.624 3.648 8.528 6.432 11.728 2.8 3.184 6.24 5.648 10.336 7.312 4.08 1.68 8.72 2.512 13.952 2.512 5.168 0 9.776-0.832 13.84-2.512 4.048-1.664 7.488-4.128 10.288-7.312 2.8-3.2 4.944-7.104 6.432-11.728a50.72 50.72 0 0 0 2.24-15.632zM769.152 306.4h43.184v21.6h-70.24v-116.56h27.04v94.96z" fill="#FFFFFF" /></svg>