<svg xmlns="http://www.w3.org/2000/svg" fill="none" viewBox="0 0 36 36"><path fill="#fff" d="M11.386 33H32.6c.216 0 .4-.17.4-.372V10h-5.6c-.772 0-1.4-.628-1.4-1.4V3H11.4c-.216 0-.4.17-.4.372v29.27c0 .197.173.358.386.358z"/><path fill="#fff" d="M32.204 9 27 3.815V8.6c0 .22.18.4.4.4h4.804z"/><path fill="#605E5C" fill-rule="evenodd" d="m33.613 8.993-6.595-6.572A1.45 1.45 0 0 0 26 2H11.4c-.772 0-1.4.615-1.4 1.372v29.27c0 .749.622 1.358 1.386 1.358H32.6c.772 0 1.4-.615 1.4-1.372V9.923c0-.346-.14-.686-.387-.93zM27 3.815 32.204 9H27.4a.4.4 0 0 1-.4-.4V3.815zM32.6 33c.216 0 .4-.17.4-.372V10h-5.6c-.772 0-1.4-.628-1.4-1.4V3H11.4c-.216 0-.4.17-.4.372v29.27c0 .198.173.358.386.358H32.6z" clip-rule="evenodd" opacity=".64"/><path fill="#134A2C" d="M29 25h-3a1 1 0 1 1 0-2h3a1 1 0 1 1 0 2z"/><path fill="#185C37" d="M23 25h-3v-2h3a1 1 0 1 1 0 2z"/><path fill="#21A366" d="M29 21h-3a1 1 0 1 1 0-2h3a1 1 0 1 1 0 2z"/><path fill="#107C41" d="M23 21h-3v-2h3a1 1 0 1 1 0 2z"/><path fill="#33C481" d="M29 17h-3a1 1 0 1 1 0-2h3a1 1 0 1 1 0 2z"/><path fill="#21A366" d="M23 17h-3v-2h3a1 1 0 1 1 0 2z"/><path fill="#107C41" d="M3.5 28h13a1.5 1.5 0 0 0 1.5-1.5v-13a1.5 1.5 0 0 0-1.5-1.5h-13A1.5 1.5 0 0 0 2 13.5v13A1.5 1.5 0 0 0 3.5 28z"/><path fill="#F9F7F7" d="m6 25 2.898-5.013L6.243 15h2.136l1.449 3.186c.133.303.225.529.275.677h.02c.095-.242.194-.476.299-.705L11.97 15h1.96l-2.723 4.959L14 25h-2.086l-1.674-3.5a3.11 3.11 0 0 1-.2-.469h-.025c-.03.112-.093.264-.193.454L8.1 25H6z"/></svg>