<svg class="svg-icon" style="width: 1em;height: 1em;vertical-align: middle;fill: currentColor;overflow: hidden;" viewBox="0 0 1024 1024" version="1.1" xmlns="http://www.w3.org/2000/svg"><path d="M901.851653 926.484607a48.255937 48.255937 0 0 1-14.274541 34.442195 48.844737 48.844737 0 0 1-34.457555 14.279661H170.419644a48.220097 48.220097 0 0 1-34.457555-14.279661 48.844737 48.844737 0 0 1-14.279662-34.442195V48.846068a48.317377 48.317377 0 0 1 14.279662-34.467795A48.844737 48.844737 0 0 1 170.419644 0.001331h418.800096a48.742337 48.742337 0 0 1 34.662355 14.131182l263.858857 263.910057a48.844737 48.844737 0 0 1 14.110701 34.667475z" fill="#EBECF0" /><path d="M901.851653 926.484607v48.767936a48.317377 48.317377 0 0 1-14.274541 34.467796 48.844737 48.844737 0 0 1-34.457555 14.279661H170.419644a48.844737 48.844737 0 0 1-48.788417-48.844737v-48.721856a48.204737 48.204737 0 0 0 14.279662 34.442195 48.844737 48.844737 0 0 0 34.457555 14.279661h682.648713a48.844737 48.844737 0 0 0 48.773056-48.783296z" fill="#C1C7D0" /><path d="M24.167034 536.423034h975.153932v243.849923a48.921536 48.921536 0 0 1-48.721856 48.844736H73.011771a48.342977 48.342977 0 0 1-34.467796-14.274541 48.844737 48.844737 0 0 1-14.376941-34.570195z" fill="#FF6B08" /><path d="M121.733627 536.412794V438.856441L24.167034 536.412794z m780.118026 0l0.926719-97.556353 97.039234 97.556353z" fill="#FF4B08" /><path d="M901.851653 312.628125v6.860791h-263.833257a48.844737 48.844737 0 0 1-48.844736-48.844737V0.001331a48.732097 48.732097 0 0 1 34.662355 14.115822l264.268456 263.751337a49.459136 49.459136 0 0 1 13.701102 34.754515z" fill="#C1C7D0" /><path d="M310.308102 722.703752l-29.516761 51.164093H213.888388l63.948716-94.453637-58.045364-86.579087h66.902953l25.579487 46.238659 26.567645-46.233539h66.902953l-61.987759 86.579087 61.987759 94.448517H338.841825zM476.579886 773.867845H422.471796v-181.032724H494.284823l32.470998 113.146732 31.477719-113.146732h71.828387v181.032724h-53.130171v-55.096248l0.983038-28.533723 2.949116-32.465878h-0.983038l-32.465878 116.095849h-41.323466l-33.454037-116.095849 1.971198 26.562526 1.966077 28.528602zM805.191299 773.867845h-141.675336v-181.032724h60.011442v138.726219h81.663894z" fill="#FFFFFF" /></svg>