<svg class="svg-icon" style="width: 1em;height: 1em;vertical-align: middle;fill: currentColor;overflow: hidden;" viewBox="0 0 1024 1024" version="1.1" xmlns="http://www.w3.org/2000/svg"><path d="M896 256v662.741333c-0.298667 34.944-4.266667 48.213333-11.392 61.610667-7.424 13.909333-18.346667 24.832-32.256 32.256l-1.536 0.810667c-13.184 6.784-27.050667 10.453333-62.122667 10.581333H237.397333c-38.058667 0-51.84-3.968-65.706666-11.392a77.525333 77.525333 0 0 1-32.298667-32.256l-0.853333-1.578667C131.84 965.632 128.170667 951.765333 128 916.693333V109.397333c0-38.058667 3.968-51.84 11.392-65.706666 7.424-13.952 18.346667-24.874667 32.256-32.298667l1.578667-0.853333C186.368 3.84 200.234667 0.170667 235.306667 0H640l256 256z" fill="#926000" /><path d="M469.333333 106.666667h42.666667V213.333333H469.333333a21.333333 21.333333 0 0 1-21.333333-21.333333V128a21.333333 21.333333 0 0 1 21.333333-21.333333zM512 0h42.666667a21.333333 21.333333 0 0 1 21.333333 21.333333V85.333333a21.333333 21.333333 0 0 1-21.333333 21.333334H512V0zM469.333333 320h42.666667V426.666667H469.333333a21.333333 21.333333 0 0 1-21.333333-21.333334V341.333333a21.333333 21.333333 0 0 1 21.333333-21.333333zM512 213.333333h42.666667a21.333333 21.333333 0 0 1 21.333333 21.333334V298.666667a21.333333 21.333333 0 0 1-21.333333 21.333333H512V213.333333zM512 426.666667h42.666667a21.333333 21.333333 0 0 1 21.333333 21.333333V512a21.333333 21.333333 0 0 1-21.333333 21.333333H512V426.666667zM554.666667 576a21.333333 21.333333 0 0 1 21.333333 21.333333v192a21.333333 21.333333 0 0 1-21.333333 21.333334H469.333333a21.333333 21.333333 0 0 1-21.333333-21.333334V597.333333a21.333333 21.333333 0 0 1 21.333333-21.333333h85.333334z m0 85.333333H469.333333v128h85.333334v-128z" fill="#FFFFFF" /><path d="M640 0l256 256h-184.874667c-24.746667 0-33.706667-2.56-42.752-7.424a50.389333 50.389333 0 0 1-20.949333-20.949333l-0.725333-1.365334c-4.394667-8.618667-6.698667-17.877333-6.698667-41.386666V0z" fill="#000000" fill-opacity=".264" /></svg>